<svg width="1024" height="1024" viewBox="0 0 1024 1024" fill="none" xmlns="http://www.w3.org/2000/svg">
<g id="hair/short-17">
<g id="Vector">
<path d="M563.91 200.09C572 202.38 579.11 207.05 584.84 213.15C591.34 220.07 596.91 227.78 601.62 236.01C608.67 230.49 616.65 226.24 625 223.03C630.39 221.07 637.41 219.7 642.85 222.07C647.54 224.03 649.57 229.22 649.12 234.04C648.41 241.08 644.51 247.66 640.78 253.51C649.69 251.74 658.95 249.54 668 248.92C673.66 248.64 679.33 248.28 685 248.29C697.85 248.53 712.12 249.48 723.96 254.98C728.18 257.04 733.4 260.04 735.58 264.39C737.41 268.94 735.37 273 732.41 276.42C726.94 282.55 719.7 287.32 712.76 291.63C727.1 296.5 742.4 303.06 753.94 313.08C758.45 317.08 762.99 322.61 762.58 329.01C762.13 335.29 758.25 339.77 753.21 343.12C763.55 350.74 771.9 360.74 778.04 371.98C782.03 379.79 784.71 388.99 781.42 397.55C778.84 404.68 773.37 409.14 766.89 412.65C774.65 423.19 778.08 436.01 777.87 449C777.6 454.98 775.94 460.82 771.96 465.4C768.8 465.19 765.74 463.32 762.7 462.42C747.07 457.28 730.57 460.67 716.48 468.49C711.88 471.19 707.35 474.01 702.71 476.66C706.04 476.42 709.8 475.83 713.08 476.58C715.67 479.7 713.41 482.02 711.93 484.92C709.72 488.37 708.01 492.28 705.46 495.49C703.76 497.86 699.65 495.92 700.59 493.03C701.94 489.31 704.39 485.95 706.29 482.49C699.74 482.58 693.76 485.31 687.32 484.46C687.43 482.99 687.61 481.54 687.85 480.09C689.93 477.78 692.84 476.11 695.39 474.36C702 469.91 708.94 466.03 715.75 461.9C708.89 461.39 702.01 461.67 695.15 461.34C692.84 461.33 691.74 459.97 691.12 457.88C690.36 453.43 691.58 448.34 691.39 443.9C690.67 441.26 688.86 438.83 687.55 436.45C678.7 420.75 671.8 403.7 667.89 386.09C662.75 386.28 658 386.64 653 385.06C647.84 383.42 642.82 380.85 638.73 377.28C631.82 370.86 627.36 362.87 624.17 354.07C619.44 358.56 613.7 362.55 607.02 363.13C602.2 363.24 598.96 359.7 597.61 355.37C595.57 348.69 597.23 340.63 598.84 333.97C573.17 344.9 545.8 351.64 518 353.95C506.84 354.74 495.48 354.12 484.3 353.77C485.98 357.14 487.74 360.1 487.53 364.03C487.46 367.49 485.14 370.67 481.81 371.69C475.98 373.52 470.39 372.68 464.49 371.78C454.29 370.11 445.3 366.16 436.06 361.73C435.75 365.32 435.75 368.75 434.06 372.03C432.18 375.61 429.47 378.84 426.14 381.17C419.33 385.97 409.14 385.83 402.85 380.17C396.75 374.83 392.07 367.44 388.26 360.34C385.72 364.69 382.88 368.74 379.57 372.53C372.65 380.79 364.89 388.31 355.14 393.16C349.99 395.69 343.77 397.49 338 396.79C333.58 396.03 330.35 392.44 328.59 388.51C325.24 380.97 325.83 372.86 328.35 365.17C318.11 368.33 307.65 369.3 297 369.69C292.51 369.7 287.28 369.13 283.5 366.51C278.42 363.12 275.98 356.12 278.37 350.4C280.6 344.96 285.81 340.61 290.9 337.9C299.31 333.49 309.8 332.81 319.12 332.84C313.84 329.16 308.97 325.03 304.73 320.18C301.33 316.27 298.74 311.2 298.24 305.99C297.84 301.04 300.96 296.62 304.7 293.69C310.34 289.31 317.79 286.95 324.75 285.75C335.28 284.33 345.99 283.31 356.6 284.55C353.01 281.43 350.22 277.68 349.12 272.98C348.26 268.92 348.05 264.27 350.7 260.79C353.51 256.95 358.3 254.38 362.63 252.64C372.75 248.69 384.22 247.4 395 247.13C408.38 246.36 421.58 247.21 434.93 247.97C431.55 240.98 426.58 234.06 426.84 225.96C426.94 220.02 430.98 215.27 436.51 213.43C444.87 210.63 454.25 210.39 462.96 211.21C476.85 213.33 490.58 216.74 504.07 220.64C512.32 223.06 520.39 226.02 528.59 228.6C528.76 219.86 531.12 210.87 538.29 205.26C545.46 199.5 555.05 197.68 563.91 200.09Z" fill="black"/>
<path d="M719.99 575.88C725.36 576.89 730.44 578.62 736 578.69C738.35 579.09 741.97 578.29 743 581.08C743.55 584.73 742.45 588.74 741.17 592.15C737.85 600.3 729.37 606.01 720.45 604.52C714.32 603.34 710.49 598.77 707.74 593.48C711.02 588.8 714.02 583.95 717.11 579.15C717.9 578.03 718.75 576.54 719.99 575.88Z" fill="black"/>
</g>
<g id="Color">
<path d="M565.83 207.14C576.34 211.22 584.49 221.23 590.77 230.25C593.68 234.16 595.71 238.61 598.48 242.57C601.34 243.45 603.2 241.94 605.33 240.31C610.48 236.06 616.22 233.19 622.26 230.42C627.72 228.09 632.88 226.05 638.97 227.05C642.21 227.88 643.54 230.89 643.05 234.04C641.95 241.41 637.12 247.41 633.52 253.5C632.06 255.48 633.41 258.88 635.97 259.1C641.15 259.62 646.69 257.86 651.81 257.04C658.81 255.48 665.89 255.01 673.01 254.39C686.8 253.82 701.62 254.25 714.98 258.03C720.29 259.73 726.82 262.44 730.18 267.1C730.52 269.54 728.24 272.02 726.68 273.67C720.43 279.63 713.15 284.6 705.53 288.63C703.63 289.84 701.78 290.44 701.69 293.05C702.17 295.25 703.86 295.63 705.73 296.21C716.74 298.76 727.31 303.39 737.2 308.8C743.73 312.74 751.77 317.61 755.52 324.47C757.83 328.73 755.72 333.5 752.17 336.26C750.34 337.57 748.11 338.08 746.25 339.27C744.24 340.84 745.54 343.58 746.88 345.11C751.91 349.55 757.22 353.15 761.53 358.47C767.44 365.66 773.45 373.91 775.92 383C777.47 388.69 777.12 394.67 773.53 399.52C770.31 404.44 765.6 406.09 760.69 408.73C757.93 410.8 759.96 413.47 761.38 415.61C769.61 426.13 772.82 439.6 771.44 452.79C771.08 454.73 770.03 456.65 769.15 458.41C757.04 453.83 743.94 452.6 731.41 456.3C727.51 457.66 724.14 456.15 720.02 456.02C712.36 455.77 704.67 456 697.01 455.9C696.73 450.41 699.1 443 695.74 438.36C685.79 421.75 677.57 403.39 673.15 384.5C682.68 380.85 690.4 374.31 695.44 365.43C696.21 363.95 695.75 361.81 695.72 360.19C694.34 360.23 692.87 360.16 691.52 360.47C689.66 362.65 688.31 365.23 686.5 367.45C681.57 373.97 673.99 378.45 665.99 379.96C660.34 381.27 654.19 379.54 649.16 376.91C640.78 372.96 634.86 364.07 631.38 355.76C629.73 352.1 629.59 348.25 628.53 344.46C626.6 343.59 624.7 343.31 623.33 345.23C619.88 349.77 616.28 353.8 610.88 356.03C608.87 356.93 605.56 358.15 604.21 355.66C601.43 351.19 602.17 345.91 603.06 341C603.8 335.91 606.08 331.79 605.59 326.54C603.06 326.33 600.81 326.25 598.48 327.44C586.08 333.01 573.08 337.27 559.96 340.79C532.82 347.57 503.75 350.84 475.92 347.07C473.34 346.52 471.51 350.42 473.73 351.88C477.68 355.19 481.9 358.11 481.84 363.86C481.63 366.42 477.99 366.72 476.03 366.86C462.07 367.02 448.85 361.28 436.59 355.16C434.33 354.26 431.99 352.43 430.49 355.51C429.44 359.56 430.92 364.49 429.45 368.49C427.1 373.21 423.05 377.35 417.77 378.54C413.26 379.72 408.73 377.61 405.58 374.43C400.53 369.38 396.63 363.01 393.26 356.75C392.18 354.84 391.38 352.58 389.94 350.92C388.58 350.29 386.6 350.48 386 352.04C384.04 356.02 382.29 359.99 379.5 363.48C372.06 372.84 363.94 381.73 353.2 387.32C348.94 389.5 343.5 391.42 338.68 390.73C333.96 388.64 332.67 382.66 332.17 378.03C332.02 372.2 334.01 366.08 337.4 361.34C338.39 359.79 338.47 358.99 337.66 357.32C335.38 356.05 333.34 357.24 331.14 358.01C321.05 362.55 308.9 363.31 298 363.7C294.03 363.62 289.35 363.62 286.21 360.85C283.07 358.47 282.89 353.32 285.29 350.38C289.51 344.79 296.14 341.41 302.93 340.13C311.77 338.48 321.4 338.89 330.31 338.16C330.09 336.44 330.93 333.91 329.21 332.88C324.34 329.36 319.21 326.38 314.89 322.12C309.84 317.31 304.67 312.47 304.26 305.01C304.49 301.76 307.64 298.97 310.16 297.24C318.09 292.35 327.88 291.04 337.01 290.5C347.02 289.64 357.01 289.96 366.76 292.51C368.6 292.73 370.76 293.91 372.05 292.02C373.67 290.26 372.75 288.31 371.09 287.04C367.13 284.15 361.93 281.72 358.34 277.75C355.94 275.12 354.69 271.48 354.38 267.98C354.58 263.88 358.46 261.43 361.72 259.7C371.26 254.97 382.56 253.8 393.03 253.18C403.08 253.04 413.17 252.89 423.21 253.33C429.75 253.63 436.55 254.83 443.05 254.02C442.88 250.05 440.67 247.36 439.11 243.87C436.74 238.79 433.27 233.59 432.77 227.98C432.41 224.93 433.4 221.82 436.18 220.22C439.89 218.05 444.77 217.47 448.99 217.17C454.84 216.96 461.06 216.78 466.8 217.92C478.84 220.16 490.75 223.04 502.49 226.48C512.39 229.44 522.15 233.19 532.08 235.98C534.74 236.25 535.22 233.1 534.71 231.04C533.04 222.63 536.57 212.56 544.31 208.24C550.9 204.21 558.82 204.16 565.83 207.14Z" fill="#AC6511"/>
<path d="M721.7 582.63C726.97 583.34 732.19 584.31 737.48 584.83C736.32 591.94 731.6 598.36 724 598.91C719.66 599.32 717.64 596.48 714.7 593.94C717.06 590.18 719.41 586.43 721.7 582.63Z" fill="#AC6511"/>
</g>
</g>
</svg>
