<svg width="1024" height="1024" viewBox="0 0 1024 1024" fill="none" xmlns="http://www.w3.org/2000/svg">
<g id="eyebrows/variant-06">
<path id="Vector" d="M501.99 384.96C511.9 385.08 521.86 388.19 530.82 392.27C534.18 394.15 537.87 396.28 538.13 400.56C532.99 399.7 527.99 398.5 522.75 398.28C511.15 397.6 499.62 399.64 489.5 405.51C486.96 406.92 484.55 408.77 481.86 409.86C480.06 410.13 477.94 407.87 477.92 406.13C477.74 400.32 479.87 394.21 484.45 390.43C489.48 386.2 495.6 385.13 501.99 384.96Z" fill="black"/>
<path id="Vector_2" d="M414.03 402.61C419.84 402.76 424.96 407.91 426.54 413.25C427.34 415.88 426.08 418.97 423.01 418.86C414.19 419.07 404.8 418.89 396.2 421.12C388.68 423.13 381.46 427.83 374.84 431.86C373.62 432.67 372.27 432.82 370.86 433.08C371.19 431.15 371.5 429.42 372.8 427.87C376.08 423.54 379.58 419.29 383.54 415.57C389.42 410.4 396.55 406.61 403.86 403.91C407.09 402.8 410.62 402.33 414.03 402.61Z" fill="black"/>
</g>
</svg>
