<svg width="1024" height="1024" viewBox="0 0 1024 1024" fill="none" xmlns="http://www.w3.org/2000/svg">
<g id="mouth/variant-21">
<path id="Vector" d="M480.96 561.69C485.67 561.11 491.22 561.74 494.67 565.35C498.45 569.26 498.82 574.77 497.89 579.88C495.25 591.68 485.03 601.31 473.06 603.15C465.56 604.64 457.49 602.85 450.91 599.1C445.76 596.19 442.05 591.46 439.83 586.04C438.52 582.75 438.21 578.81 439.4 575.45C440.7 572.34 443.52 570.45 446.74 569.76C452.4 567.92 458.4 570.02 463.37 572.8C467.95 567.71 473.94 562.63 480.96 561.69Z" fill="black"/>
<path id="Vector_2" d="M480.51 567.7C483.8 566.67 487.89 567.13 490.51 569.48C492.57 571.51 492.62 575.37 492.22 578.04C490.38 587.82 481.94 595.78 472.15 597.36C465.63 598.67 458.96 597.03 453.31 593.68C449.01 591.16 445.87 586.7 444.5 581.96C443.8 579.51 444.14 576.89 446.54 575.58C449.13 574.5 452.3 574.56 455.02 575.09C458.5 575.79 460.82 578 463.99 579.41C465.92 579.32 466.61 578.02 467.8 576.77C471.12 572.83 475.49 569.15 480.51 567.7Z" fill="#8F2E45"/>
</g>
</svg>
