<svg width="1024" height="1024" viewBox="0 0 1024 1024" fill="none" xmlns="http://www.w3.org/2000/svg">
<g id="eyes/variant-14">
<path id="Vector" d="M559.03 444.54C570.38 443.8 581.54 444.51 592.19 448.79C603.57 453.21 613.5 461.2 618.41 472.59C619.76 475.88 621.52 480.15 620.64 483.71C617.57 486.95 612.08 484.72 608.08 484.73C595.42 484.14 582.64 484.27 570.01 485.33C556.09 486.34 541.61 487.04 528.08 490.56C519.51 492.32 511.08 495.03 502.85 497.97C499.16 499.23 496.05 500.92 491.99 500.18C493.3 483.35 504.95 468.77 518.25 459.23C530.38 451.02 544.44 445.89 559.03 444.54Z" fill="black"/>
<path id="Vector_2" d="M572.98 450.16C584.59 451.25 596.17 455.14 604.85 463.16C609.79 467.68 613.16 473.47 615.04 479.88C598.32 477.71 580.74 479.01 563.95 479.98C556.31 480.86 548.58 480.96 541.01 482.23C542.16 472.96 543.16 463.8 542.06 454.46C552.07 450.94 562.34 448.98 572.98 450.16Z" fill="white"/>
<path id="Vector_3" d="M369.22 468.68C386.32 465.85 404.85 468.45 420.1 476.87C428.79 481.7 436.96 488.94 440.71 498.35C441.44 500.41 442.29 502.94 439.98 504.31C437.33 504.39 434.61 503.72 431.99 503.3C422.58 501.49 412.59 501.19 403 500.73C392.3 500.28 381.7 501.2 371.01 501.32C358.52 502.16 346.24 504.25 333.91 506.32C331.46 506.9 330.77 503.93 330.84 502.08C330.99 489.71 339.92 479.76 350.6 474.63C356.6 472.09 362.83 469.96 369.22 468.68Z" fill="black"/>
<path id="Vector_4" d="M516.85 467.34C516.28 474.3 516.32 480.79 516.98 487.74C510.82 489.54 504.78 491.62 498.76 493.84C501.96 483.21 508.64 474.6 516.85 467.34Z" fill="white"/>
<path id="Vector_5" d="M374.58 473.35C384.47 472.84 394.26 473.38 403.78 476.28C416.18 479.99 427.57 486.44 434.36 497.84C414.17 494.26 394.38 495.23 374.05 495.38C374.93 488.03 374.72 480.73 374.58 473.35Z" fill="white"/>
<path id="Vector_6" d="M350.49 480.58C350.21 486.44 350.24 492.22 350.5 498.08C345.79 498.36 341.09 498.82 336.46 499.76C338.08 492.76 341.61 487.69 347.11 483.2C348.23 482.31 349.36 481.44 350.49 480.58Z" fill="white"/>
</g>
</svg>
